<svg width="88" height="21" viewBox="0 0 88 21" fill="none" xmlns="http://www.w3.org/2000/svg">
<path d="M0 17.5906L2.58418 14.5305C3.99933 15.7465 5.84517 16.5774 7.46542 16.5774C9.35228 16.5774 10.2547 15.8478 10.2547 14.6724C10.2547 13.4362 9.12668 13.0309 7.38338 12.3216L4.7992 11.2272C2.72775 10.3963 0.779356 8.71426 0.779356 5.85679C0.779356 2.59401 3.73271 0 7.8756 0C10.1727 0 12.5723 0.891688 14.2745 2.57374L11.998 5.37042C10.6854 4.3774 9.43432 3.83022 7.8756 3.83022C6.31689 3.83022 5.33244 4.47872 5.33244 5.59333C5.33244 6.80928 6.62453 7.23486 8.36783 7.92389L10.911 8.93718C13.3516 9.90993 14.8488 11.5109 14.8488 14.2873C14.8488 17.5501 12.1005 20.3873 7.34236 20.3873C4.7992 20.4481 2.03043 19.4754 0 17.5906Z" fill="#2B5BB7"/>
<path d="M18.6636 0.0405579H23.3193V16.5571H31.4615V20.4279H18.6431V0.0405579H18.6636Z" fill="#2B5BB7"/>
<path d="M35.2761 0.0405579H40.3625L43.7055 9.09934C44.1157 10.295 44.4848 11.6123 44.895 12.8688H45.0181C45.4283 11.6123 45.7769 10.3153 46.1871 9.09934L49.4276 0.0405579H54.5139V20.4279H50.2685V12.9498C50.2685 10.9638 50.6377 8.00499 50.8633 6.01895H50.7402L49.0379 10.8422L46.1256 18.6445H43.5414L40.6086 10.8422L38.9678 6.01895H38.8448C39.0704 7.98472 39.4395 10.9638 39.4395 12.9498V20.4279H35.2556V0.0405579H35.2761Z" fill="#2B5BB7"/>
<path d="M56.4418 15.7667C56.4418 12.504 59.067 10.7206 65.2813 10.0721C65.1788 8.71426 64.502 7.82257 62.7997 7.82257C61.4871 7.82257 60.1745 8.36975 58.6363 9.22091L56.975 6.20131C58.9644 5.00564 61.2205 4.15448 63.6816 4.15448C67.7014 4.15448 69.9164 6.42424 69.9164 11.1867V20.4279H66.1222L65.7941 18.4621H65.671C64.3584 19.6172 62.8612 20.4279 61.0974 20.4279C58.2466 20.4481 56.4418 18.381 56.4418 15.7667ZM65.2813 15.5641V12.8485C61.9793 13.2943 60.8923 14.2265 60.8923 15.402C60.8923 16.395 61.5896 16.9016 62.6971 16.9016C63.7431 16.8814 64.4609 16.3747 65.2813 15.5641Z" fill="#2B5BB7"/>
<path d="M76.6641 12.3621L72.111 4.92462H77.0948L78.4894 7.43757C78.9201 8.309 79.3918 9.22095 79.8225 10.0924H79.9456C80.2737 9.22095 80.6839 8.309 81.0121 7.43757L82.0785 4.92462H86.8982L82.3862 12.889L87.2059 20.4482H82.2221L80.6839 17.8744C80.1917 16.9827 79.72 16.0505 79.2072 15.1791H79.0842C78.6945 16.0505 78.2638 16.9625 77.8741 17.8744L76.6436 20.4482H71.8239L76.6641 12.3621Z" fill="#2B5BB7"/>
</svg>
