<svg width="774" height="629" viewBox="0 0 774 629" fill="none" xmlns="http://www.w3.org/2000/svg">
<path d="M543.457 382.859C540.092 382.859 537.357 380.125 537.357 376.759V353.258C537.357 349.892 540.092 347.158 543.457 347.158C546.823 347.158 549.558 349.892 549.558 353.258V376.759C549.558 380.125 546.823 382.859 543.457 382.859ZM543.457 351.335C542.375 351.335 541.504 352.206 541.504 353.288V376.789C541.504 377.871 542.375 378.742 543.457 378.742C544.539 378.742 545.411 377.871 545.411 376.789V353.288C545.411 352.206 544.539 351.335 543.457 351.335Z" fill="#F6F6F6" fill-opacity="0.7"/>
<path d="M516.801 304.453C515.178 304.453 513.646 303.822 512.474 302.68L495.855 286.062C494.713 284.92 494.082 283.387 494.082 281.734C494.082 280.081 494.713 278.579 495.855 277.407C496.997 276.265 498.529 275.633 500.182 275.633C501.805 275.633 503.338 276.265 504.51 277.407L521.129 294.025C522.271 295.167 522.902 296.7 522.902 298.353C522.902 300.006 522.271 301.508 521.129 302.68C519.957 303.822 518.424 304.453 516.801 304.453ZM500.182 279.781C499.671 279.781 499.161 279.991 498.8 280.352C498.439 280.712 498.229 281.193 498.229 281.734C498.229 282.275 498.439 282.756 498.8 283.116L515.419 299.735C515.779 300.096 516.26 300.306 516.801 300.306C517.342 300.306 517.823 300.096 518.184 299.735C518.544 299.375 518.755 298.894 518.755 298.353C518.755 297.812 518.544 297.331 518.184 296.97L501.565 280.352C501.174 279.991 500.693 279.781 500.182 279.781Z" fill="white"/>
<path d="M617.055 344.874H593.554C590.188 344.874 587.454 342.139 587.454 338.773C587.454 335.407 590.188 332.672 593.554 332.672H617.055C620.421 332.672 623.156 335.407 623.156 338.773C623.156 342.139 620.421 344.874 617.055 344.874ZM593.554 336.82C592.472 336.82 591.601 337.691 591.601 338.773C591.601 339.855 592.472 340.726 593.554 340.726H617.055C618.137 340.726 619.008 339.855 619.008 338.773C619.008 337.691 618.137 336.82 617.055 336.82H593.554Z" fill="white"/>
<path d="M525.576 420.635H502.076C498.71 420.635 495.975 417.9 495.975 414.535C495.975 411.169 498.71 408.434 502.076 408.434H525.576C528.942 408.434 531.677 411.169 531.677 414.535C531.677 417.9 528.942 420.635 525.576 420.635ZM502.076 412.581C500.994 412.581 500.122 413.453 500.122 414.535C500.122 415.616 500.994 416.488 502.076 416.488H525.576C526.658 416.488 527.53 415.616 527.53 414.535C527.53 413.453 526.658 412.581 525.576 412.581H502.076Z" fill="white"/>
<path d="M637.19 277.887H613.719C610.353 277.887 607.619 275.153 607.619 271.787C607.619 268.421 610.353 265.686 613.719 265.686H637.22C640.586 265.686 643.321 268.421 643.321 271.787C643.291 275.153 640.556 277.887 637.19 277.887ZM613.719 269.863C612.637 269.863 611.766 270.735 611.766 271.817C611.766 272.899 612.637 273.77 613.719 273.77H637.22C638.302 273.77 639.173 272.899 639.173 271.817C639.173 270.735 638.302 269.863 637.22 269.863H613.719Z" fill="white"/>
<path d="M573.75 184.666H550.249C546.883 184.666 544.149 181.931 544.149 178.565C544.149 175.199 546.883 172.464 550.249 172.464H573.75C577.116 172.464 579.851 175.199 579.851 178.565C579.851 181.931 577.116 184.666 573.75 184.666ZM550.279 176.612C549.197 176.612 548.326 177.483 548.326 178.565C548.326 179.647 549.197 180.518 550.279 180.518H573.75C574.832 180.518 575.703 179.647 575.703 178.565C575.703 177.483 574.832 176.612 573.75 176.612H550.279Z" fill="white"/>
<path d="M543.457 252.283C541.835 252.283 540.302 251.652 539.13 250.51C537.988 249.368 537.357 247.835 537.357 246.182C537.357 244.56 537.988 243.027 539.13 241.855L555.749 225.236C558.123 222.862 562 222.862 564.374 225.236C566.748 227.61 566.748 231.487 564.374 233.861L547.755 250.48C546.613 251.652 545.08 252.283 543.457 252.283ZM560.076 227.64C559.565 227.64 559.084 227.821 558.694 228.211L542.075 244.83C541.324 245.581 541.324 246.813 542.075 247.565C542.436 247.925 542.916 248.136 543.457 248.136C543.998 248.136 544.479 247.925 544.84 247.565L561.459 230.946C562.21 230.195 562.21 228.963 561.459 228.211C561.068 227.821 560.557 227.64 560.076 227.64Z" fill="white"/>
<path d="M589.738 315.483C596.62 306.557 597.281 294.146 591.421 284.589C585.53 274.972 573.69 269.954 562.661 272.418C556.59 273.77 551.091 277.226 547.184 282.185L546.342 283.237L550.399 286.392L551.241 285.34C553.735 282.155 556.981 279.751 560.647 278.338C569.152 275.093 579.189 277.647 585.05 284.529C591.751 292.373 592.022 304.063 585.681 312.297L584.869 313.349L588.926 316.504L589.738 315.483Z" fill="white"/>
<path d="M574.291 291.411L552.022 295.288L552.713 299.615L567.199 296.91L549.558 319.45L551.271 320.802L553.014 322.154L570.655 299.615L571.496 314.311L575.854 313.95L574.291 291.411Z" fill="white"/>
<path d="M122.806 566.822C119.44 566.822 116.705 564.087 116.705 560.722V537.221C116.705 533.855 119.44 531.12 122.806 531.12C126.171 531.12 128.906 533.855 128.906 537.221V560.722C128.906 564.087 126.171 566.822 122.806 566.822ZM122.806 535.297C121.724 535.297 120.852 536.169 120.852 537.251V560.752C120.852 561.833 121.724 562.705 122.806 562.705C123.887 562.705 124.759 561.833 124.759 560.752V537.251C124.759 536.169 123.887 535.297 122.806 535.297Z" fill="#F6F6F6" fill-opacity="0.7"/>
<path d="M96.1493 488.416C94.5265 488.416 92.9938 487.785 91.8218 486.643L75.203 470.024C74.061 468.882 73.4299 467.35 73.4299 465.697C73.4299 464.044 74.061 462.541 75.203 461.369C76.345 460.227 77.8776 459.596 79.5305 459.596C81.1533 459.596 82.686 460.227 83.858 461.369L100.477 477.988C101.619 479.13 102.25 480.663 102.25 482.316C102.25 483.968 101.619 485.471 100.477 486.643C99.3048 487.785 97.7721 488.416 96.1493 488.416ZM79.5305 463.743C79.0196 463.743 78.5087 463.954 78.1481 464.314C77.7875 464.675 77.5771 465.156 77.5771 465.697C77.5771 466.238 77.7875 466.718 78.1481 467.079L94.7669 483.698C95.1276 484.059 95.6084 484.269 96.1493 484.269C96.6903 484.269 97.1711 484.059 97.5317 483.698C97.8923 483.337 98.1027 482.856 98.1027 482.316C98.1027 481.775 97.8923 481.294 97.5317 480.933L80.9129 464.314C80.5222 463.954 80.0414 463.743 79.5305 463.743Z" fill="white"/>
<path d="M196.403 528.836H172.902C169.537 528.836 166.802 526.102 166.802 522.736C166.802 519.37 169.537 516.635 172.902 516.635H196.403C199.769 516.635 202.504 519.37 202.504 522.736C202.504 526.102 199.769 528.836 196.403 528.836ZM172.902 520.782C171.821 520.782 170.949 521.654 170.949 522.736C170.949 523.818 171.821 524.689 172.902 524.689H196.403C197.485 524.689 198.357 523.818 198.357 522.736C198.357 521.654 197.485 520.782 196.403 520.782H172.902Z" fill="white"/>
<path d="M104.925 604.598H81.4238C78.058 604.598 75.3232 601.863 75.3232 598.497C75.3232 595.131 78.058 592.397 81.4238 592.397H104.925C108.29 592.397 111.025 595.131 111.025 598.497C111.025 601.863 108.29 604.598 104.925 604.598ZM81.4238 596.544C80.3419 596.544 79.4704 597.415 79.4704 598.497C79.4704 599.579 80.3419 600.451 81.4238 600.451H104.925C106.006 600.451 106.878 599.579 106.878 598.497C106.878 597.415 106.006 596.544 104.925 596.544H81.4238Z" fill="white"/>
<path d="M216.538 461.85H193.068C189.702 461.85 186.967 459.115 186.967 455.749C186.967 452.384 189.702 449.649 193.068 449.649H216.568C219.934 449.649 222.669 452.384 222.669 455.749C222.639 459.115 219.904 461.85 216.538 461.85ZM193.068 453.826C191.986 453.826 191.114 454.698 191.114 455.779C191.114 456.861 191.986 457.733 193.068 457.733H216.568C217.65 457.733 218.522 456.861 218.522 455.779C218.522 454.698 217.65 453.826 216.568 453.826H193.068Z" fill="white"/>
<path d="M153.098 368.628H129.597C126.232 368.628 123.497 365.894 123.497 362.528C123.497 359.162 126.232 356.427 129.597 356.427H153.098C156.464 356.427 159.199 359.162 159.199 362.528C159.199 365.894 156.464 368.628 153.098 368.628ZM129.627 360.574C128.546 360.574 127.674 361.446 127.674 362.528C127.674 363.61 128.546 364.481 129.627 364.481H153.098C154.18 364.481 155.052 363.61 155.052 362.528C155.052 361.446 154.18 360.574 153.098 360.574H129.627Z" fill="white"/>
<path d="M122.806 436.246C121.183 436.246 119.65 435.615 118.478 434.473C117.336 433.331 116.705 431.798 116.705 430.145C116.705 428.522 117.336 426.99 118.478 425.818L135.097 409.199C137.471 406.825 141.348 406.825 143.722 409.199C146.096 411.573 146.096 415.45 143.722 417.824L127.103 434.443C125.961 435.615 124.428 436.246 122.806 436.246ZM139.424 411.603C138.914 411.603 138.433 411.783 138.042 412.174L121.423 428.793C120.672 429.544 120.672 430.776 121.423 431.527C121.784 431.888 122.265 432.098 122.806 432.098C123.347 432.098 123.827 431.888 124.188 431.527L140.807 414.909C141.558 414.157 141.558 412.925 140.807 412.174C140.416 411.783 139.905 411.603 139.424 411.603Z" fill="white"/>
<path d="M169.086 499.445C175.968 490.52 176.629 478.108 170.769 468.552C164.879 458.935 153.038 453.916 142.009 456.381C135.938 457.733 130.439 461.189 126.532 466.148L125.691 467.199L129.748 470.355L130.589 469.303C133.083 466.117 136.329 463.713 139.995 462.301C148.5 459.055 158.538 461.61 164.398 468.492C171.099 476.335 171.37 488.025 165.029 496.26L164.217 497.312L168.274 500.467L169.086 499.445Z" fill="white"/>
<path d="M153.639 475.374L131.37 479.25L132.062 483.578L146.547 480.873L128.906 503.412L130.619 504.765L132.362 506.117L150.003 483.578L150.844 498.273L155.202 497.913L153.639 475.374Z" fill="white"/>
<path d="M461.697 595.224C458.331 595.224 455.597 592.49 455.597 589.124V565.623C455.597 562.257 458.331 559.522 461.697 559.522C465.063 559.522 467.798 562.257 467.798 565.623V589.124C467.798 592.49 465.063 595.224 461.697 595.224ZM461.697 563.7C460.615 563.7 459.744 564.571 459.744 565.653V589.154C459.744 590.236 460.615 591.107 461.697 591.107C462.779 591.107 463.651 590.236 463.651 589.154V565.653C463.651 564.571 462.779 563.7 461.697 563.7Z" fill="#F6F6F6" fill-opacity="0.7"/>
<path d="M435.041 516.818C433.418 516.818 431.886 516.187 430.714 515.045L414.095 498.426C412.953 497.284 412.322 495.752 412.322 494.099C412.322 492.446 412.953 490.943 414.095 489.771C415.237 488.629 416.769 487.998 418.422 487.998C420.045 487.998 421.578 488.629 422.75 489.771L439.369 506.39C440.511 507.532 441.142 509.065 441.142 510.718C441.142 512.371 440.511 513.873 439.369 515.045C438.197 516.187 436.664 516.818 435.041 516.818ZM418.422 492.146C417.911 492.146 417.4 492.356 417.04 492.717C416.679 493.077 416.469 493.558 416.469 494.099C416.469 494.64 416.679 495.121 417.04 495.481L433.659 512.1C434.019 512.461 434.5 512.671 435.041 512.671C435.582 512.671 436.063 512.461 436.423 512.1C436.784 511.74 436.994 511.259 436.994 510.718C436.994 510.177 436.784 509.696 436.423 509.335L419.805 492.717C419.414 492.356 418.933 492.146 418.422 492.146Z" fill="white"/>
<path d="M535.295 557.239H511.794C508.428 557.239 505.694 554.504 505.694 551.138C505.694 547.772 508.428 545.037 511.794 545.037H535.295C538.661 545.037 541.396 547.772 541.396 551.138C541.396 554.504 538.661 557.239 535.295 557.239ZM511.794 549.185C510.712 549.185 509.841 550.056 509.841 551.138C509.841 552.22 510.712 553.091 511.794 553.091H535.295C536.377 553.091 537.248 552.22 537.248 551.138C537.248 550.056 536.377 549.185 535.295 549.185H511.794Z" fill="white"/>
<path d="M443.816 633H420.315C416.95 633 414.215 630.265 414.215 626.899C414.215 623.534 416.95 620.799 420.315 620.799H443.816C447.182 620.799 449.917 623.534 449.917 626.899C449.917 630.265 447.182 633 443.816 633ZM420.315 624.946C419.234 624.946 418.362 625.818 418.362 626.899C418.362 627.981 419.234 628.853 420.315 628.853H443.816C444.898 628.853 445.77 627.981 445.77 626.899C445.77 625.818 444.898 624.946 443.816 624.946H420.315Z" fill="white"/>
<path d="M555.43 490.252H531.959C528.593 490.252 525.859 487.518 525.859 484.152C525.859 480.786 528.593 478.051 531.959 478.051H555.46C558.826 478.051 561.561 480.786 561.561 484.152C561.531 487.518 558.796 490.252 555.43 490.252ZM531.959 482.228C530.877 482.228 530.006 483.1 530.006 484.182C530.006 485.264 530.877 486.135 531.959 486.135H555.46C556.542 486.135 557.413 485.264 557.413 484.182C557.413 483.1 556.542 482.228 555.46 482.228H531.959Z" fill="white"/>
<path d="M461.697 464.648C460.074 464.648 458.542 464.017 457.37 462.875C456.228 461.733 455.597 460.2 455.597 458.547C455.597 456.924 456.228 455.392 457.37 454.22L473.989 437.601C476.363 435.227 480.239 435.227 482.614 437.601C484.988 439.975 484.988 443.852 482.614 446.226L465.995 462.845C464.853 464.017 463.32 464.648 461.697 464.648ZM478.316 440.005C477.805 440.005 477.324 440.185 476.934 440.576L460.315 457.195C459.564 457.946 459.564 459.178 460.315 459.93C460.675 460.29 461.156 460.501 461.697 460.501C462.238 460.501 462.719 460.29 463.08 459.93L479.698 443.311C480.45 442.56 480.45 441.327 479.698 440.576C479.308 440.185 478.797 440.005 478.316 440.005Z" fill="white"/>
<path d="M507.978 527.848C514.859 518.922 515.521 506.511 509.66 496.954C503.77 487.337 491.93 482.319 480.901 484.783C474.83 486.135 469.33 489.591 465.424 494.55L464.582 495.602L468.639 498.757L469.481 497.705C471.975 494.52 475.221 492.116 478.887 490.703C487.392 487.458 497.429 490.012 503.289 496.894C509.991 504.738 510.261 516.428 503.92 524.662L503.109 525.714L507.166 528.869L507.978 527.848Z" fill="white"/>
<path d="M492.531 503.776L470.262 507.652L470.953 511.98L485.438 509.275L467.798 531.814L469.511 533.167L471.254 534.519L488.894 511.98L489.736 526.676L494.093 526.315L492.531 503.776Z" fill="white"/>
<path d="M61.8358 294.901C59.3882 292.591 59.2769 288.725 61.5875 286.277L77.7199 269.188C80.0304 266.741 83.8963 266.629 86.3438 268.94C88.7914 271.25 88.9026 275.116 86.5921 277.564L70.4597 294.653C68.1492 297.1 64.2833 297.212 61.8358 294.901ZM83.4763 271.977C82.6896 271.235 81.4576 271.27 80.7149 272.057L64.5825 289.146C63.8398 289.933 63.8753 291.165 64.662 291.907C65.4487 292.65 66.6807 292.614 67.4234 291.828L83.5558 274.739C84.2985 273.952 84.263 272.72 83.4763 271.977Z" fill="#F6F6F6" fill-opacity="0.7"/>
<path d="M96.2752 219.588C95.0951 218.474 94.4139 216.963 94.3455 215.328L93.6691 191.836C93.6226 190.221 94.2159 188.674 95.3505 187.472C96.4851 186.27 97.9755 185.61 99.6105 185.542C101.225 185.495 102.773 186.089 103.974 187.223C105.155 188.337 105.836 189.848 105.904 191.483L106.581 214.976C106.627 216.59 106.034 218.138 104.899 219.34C103.765 220.542 102.274 221.201 100.639 221.27C99.003 221.296 97.4553 220.702 96.2752 219.588ZM101.128 190.239C100.756 189.888 100.24 189.691 99.7304 189.705C99.2206 189.72 98.7375 189.925 98.3662 190.319C97.9949 190.712 97.8178 191.206 97.8324 191.716L98.5088 215.209C98.5235 215.718 98.7287 216.201 99.1221 216.573C99.5154 216.944 100.009 217.121 100.519 217.106C101.029 217.092 101.512 216.887 101.883 216.493C102.255 216.1 102.432 215.606 102.417 215.096L101.741 191.603C101.704 191.073 101.499 190.59 101.128 190.239Z" fill="white"/>
<path d="M141.429 317.801L124.34 301.669C121.893 299.358 121.781 295.492 124.092 293.045C126.403 290.597 130.268 290.486 132.716 292.796L149.805 308.929C152.252 311.239 152.364 315.105 150.053 317.553C147.743 320 143.877 320.112 141.429 317.801ZM129.869 295.812C129.082 295.07 127.85 295.105 127.108 295.892C126.365 296.678 126.401 297.91 127.187 298.653L144.276 314.785C145.063 315.528 146.295 315.493 147.037 314.706C147.78 313.919 147.745 312.687 146.958 311.945L129.869 295.812Z" fill="white"/>
<path d="M22.9018 310.095L5.81286 293.963C3.36534 291.652 3.25402 287.787 5.56454 285.339C7.87507 282.892 11.741 282.78 14.1885 285.091L31.2774 301.223C33.7249 303.534 33.8362 307.4 31.5257 309.847C29.2152 312.295 25.3493 312.406 22.9018 310.095ZM11.3416 288.106C10.5549 287.364 9.3229 287.399 8.58023 288.186C7.83756 288.973 7.87304 290.205 8.65974 290.947L25.7487 307.08C26.5354 307.822 27.7674 307.787 28.51 307C29.2527 306.214 29.2172 304.982 28.4305 304.239L11.3416 288.106Z" fill="white"/>
<path d="M224.778 242.322L207.71 226.21C205.263 223.9 205.152 220.034 207.462 217.586C209.773 215.139 213.639 215.027 216.086 217.338L233.175 233.47C235.623 235.781 235.734 239.647 233.423 242.094C231.091 244.521 227.225 244.633 224.778 242.322ZM213.219 220.376C212.432 219.633 211.2 219.668 210.457 220.455C209.715 221.242 209.75 222.474 210.537 223.216L227.626 239.349C228.412 240.092 229.644 240.056 230.387 239.269C231.13 238.483 231.094 237.251 230.308 236.508L213.219 220.376Z" fill="white"/>
<path d="M151.472 199.95C150.292 198.836 149.61 197.325 149.542 195.69C149.496 194.076 150.089 192.528 151.223 191.327C152.337 190.146 153.848 189.465 155.483 189.397L178.976 188.72C182.332 188.624 185.151 191.285 185.248 194.641C185.345 197.997 182.683 200.816 179.327 200.913L155.834 201.589C154.2 201.658 152.652 201.064 151.472 199.95ZM180.473 193.439C180.101 193.089 179.628 192.89 179.076 192.906L155.583 193.582C154.521 193.613 153.675 194.509 153.705 195.571C153.72 196.08 153.925 196.563 154.319 196.935C154.712 197.306 155.206 197.483 155.716 197.469L179.209 196.792C180.271 196.762 181.117 195.866 181.086 194.804C181.07 194.251 180.822 193.769 180.473 193.439Z" fill="white"/>
<path d="M141.741 277.677C152.872 275.911 161.873 267.339 164.172 256.367C166.49 245.331 161.325 233.553 151.614 227.774C146.271 224.59 139.9 223.328 133.655 224.252L132.321 224.439L133.105 229.519L134.439 229.332C138.44 228.728 142.45 229.207 146.086 230.697C154.498 234.175 160.043 242.923 159.58 251.95C159.069 262.254 151.241 270.941 140.978 272.575L139.665 272.783L140.449 277.863L141.741 277.677Z" fill="white"/>
<path d="M147.033 249.569L128.179 237.101L125.711 240.723L138.1 248.699L109.801 252.979L110.118 255.139L110.457 257.318L138.757 253.038L129.281 264.302L132.697 267.031L147.033 249.569Z" fill="white"/>
<path d="M645.604 242.757C645.604 239.391 648.339 236.656 651.705 236.656H675.206C678.572 236.656 681.306 239.391 681.306 242.757C681.306 246.122 678.572 248.857 675.206 248.857H651.705C648.339 248.857 645.604 246.122 645.604 242.757ZM677.159 242.757C677.159 241.675 676.288 240.803 675.206 240.803H651.705C650.623 240.803 649.752 241.675 649.752 242.757C649.752 243.838 650.623 244.71 651.705 244.71H675.206C676.288 244.71 677.159 243.838 677.159 242.757Z" fill="#F6F6F6" fill-opacity="0.7"/>
<path d="M724.041 216.07C724.041 214.447 724.672 212.915 725.814 211.743L742.432 195.124C743.574 193.982 745.107 193.351 746.76 193.351C748.413 193.351 749.915 193.982 751.087 195.124C752.229 196.266 752.861 197.799 752.861 199.451C752.861 201.074 752.229 202.607 751.087 203.779L734.469 220.398C733.327 221.54 731.794 222.171 730.141 222.171C728.488 222.171 726.986 221.54 725.814 220.398C724.672 219.256 724.041 217.723 724.041 216.07ZM748.683 199.482C748.683 198.971 748.473 198.46 748.112 198.099C747.752 197.739 747.271 197.528 746.73 197.528C746.189 197.528 745.708 197.739 745.347 198.099L728.729 214.718C728.368 215.079 728.158 215.559 728.158 216.1C728.158 216.641 728.368 217.122 728.729 217.483C729.089 217.843 729.57 218.054 730.111 218.054C730.652 218.054 731.133 217.843 731.493 217.483L748.112 200.864C748.503 200.473 748.683 199.992 748.683 199.482Z" fill="white"/>
<path d="M643.29 358.007C643.29 356.384 643.921 354.851 645.063 353.679L661.682 337.06C662.824 335.918 664.357 335.287 666.01 335.287C667.663 335.287 669.165 335.918 670.337 337.06C671.479 338.202 672.11 339.735 672.11 341.388C672.11 343.011 671.479 344.543 670.337 345.715L653.718 362.334C652.576 363.476 651.044 364.107 649.391 364.107C647.768 364.107 646.235 363.476 645.063 362.334C643.921 361.162 643.29 359.629 643.29 358.007ZM667.963 341.388C667.963 340.877 667.753 340.366 667.392 340.005C667.031 339.645 666.551 339.434 666.01 339.434C665.469 339.434 664.988 339.645 664.627 340.005L648.008 356.624C647.648 356.985 647.438 357.466 647.438 358.007C647.438 358.547 647.648 359.028 648.008 359.389C648.369 359.75 648.85 359.96 649.391 359.96C649.932 359.96 650.413 359.75 650.773 359.389L667.392 342.77C667.753 342.409 667.963 341.929 667.963 341.388Z" fill="white"/>
<path d="M683.62 316.354V292.853C683.62 289.488 686.355 286.753 689.721 286.753C693.087 286.753 695.821 289.488 695.821 292.853V316.354C695.821 319.72 693.087 322.455 689.721 322.455C686.355 322.455 683.62 319.72 683.62 316.354ZM691.674 292.853C691.674 291.772 690.803 290.9 689.721 290.9C688.639 290.9 687.768 291.772 687.768 292.853V316.354C687.768 317.436 688.639 318.308 689.721 318.308C690.803 318.308 691.674 317.436 691.674 316.354V292.853Z" fill="white"/>
<path d="M607.859 224.846V201.345C607.859 197.979 610.594 195.244 613.959 195.244C617.325 195.244 620.06 197.979 620.06 201.345V224.846C620.06 228.211 617.325 230.946 613.959 230.946C610.594 230.946 607.859 228.211 607.859 224.846ZM615.913 201.375C615.913 200.293 615.041 199.421 613.959 199.421C612.878 199.421 612.006 200.293 612.006 201.375V224.876C612.006 225.957 612.878 226.829 613.959 226.829C615.041 226.829 615.913 225.957 615.913 224.876V201.375Z" fill="white"/>
<path d="M750.577 336.489V312.988C750.577 309.623 753.311 306.888 756.677 306.888C760.043 306.888 762.778 309.623 762.778 312.988V336.489C762.778 339.855 760.043 342.59 756.677 342.59C753.311 342.59 750.577 339.855 750.577 336.489ZM758.631 312.988C758.631 311.907 757.759 311.035 756.677 311.035C755.595 311.035 754.724 311.907 754.724 312.988V336.489C754.724 337.571 755.595 338.443 756.677 338.443C757.759 338.443 758.631 337.571 758.631 336.489V312.988Z" fill="white"/>
<path d="M756.677 91.6244V68.1237C756.677 64.7578 759.412 62.0231 762.778 62.0231C766.144 62.0231 768.878 64.7578 768.878 68.1237V91.6244C768.878 94.9903 766.144 97.725 762.778 97.725C759.412 97.725 756.677 94.9903 756.677 91.6244ZM764.731 68.1237C764.731 67.0418 763.86 66.1703 762.778 66.1703C761.696 66.1703 760.824 67.0418 760.824 68.1237V91.6244C760.824 92.7063 761.696 93.5778 762.778 93.5778C763.86 93.5778 764.731 92.7063 764.731 91.6244V68.1237Z" fill="white"/>
<path d="M713.011 289.037C721.937 295.919 734.348 296.58 743.905 290.72C753.521 284.83 758.54 272.989 756.076 261.96C754.724 255.889 751.268 250.39 746.309 246.483L745.257 245.642L742.102 249.699L743.153 250.54C746.339 253.034 748.743 256.28 750.156 259.946C753.401 268.451 750.847 278.489 743.965 284.349C736.121 291.05 724.431 291.321 716.197 284.98L715.145 284.168L711.989 288.225L713.011 289.037Z" fill="white"/>
<path d="M737.083 273.59L733.176 251.321L728.879 252.013L731.583 266.498L709.014 248.857L707.692 250.57L706.34 252.283L728.879 269.954L714.153 270.795L714.544 275.153L737.083 273.59Z" fill="white"/>
<path d="M264.21 70.6556C264.21 69.0328 264.841 67.5002 265.983 66.3281L282.602 49.7093C283.744 48.5673 285.276 47.9362 286.929 47.9362C288.582 47.9362 290.085 48.5673 291.257 49.7093C292.399 50.8513 293.03 52.3839 293.03 54.0368C293.03 55.6596 292.399 57.1923 291.257 58.3643L274.638 74.9831C273.496 76.1251 271.963 76.7562 270.311 76.7562C268.688 76.7562 267.155 76.1251 265.983 74.9831C264.841 73.8111 264.21 72.2785 264.21 70.6556ZM288.883 54.0368C288.883 53.5259 288.672 53.015 288.312 52.6544C287.951 52.2938 287.47 52.0834 286.929 52.0834C286.388 52.0834 285.908 52.2938 285.547 52.6544L268.928 69.2732C268.567 69.6338 268.357 70.1147 268.357 70.6556C268.357 71.1966 268.567 71.6774 268.928 72.038C269.289 72.3987 269.77 72.609 270.311 72.609C270.851 72.609 271.332 72.3987 271.693 72.038L288.312 55.4192C288.672 55.0586 288.883 54.5777 288.883 54.0368Z" fill="white"/>
<path d="M304.54 29.0034V5.50264C304.54 2.1368 307.275 -0.597961 310.641 -0.597961C314.006 -0.597961 316.741 2.1368 316.741 5.50264V29.0034C316.741 32.3692 314.006 35.104 310.641 35.104C307.275 35.104 304.54 32.3692 304.54 29.0034ZM312.594 5.50264C312.594 4.42076 311.722 3.54925 310.641 3.54925C309.559 3.54925 308.687 4.42076 308.687 5.50264V29.0034C308.687 30.0853 309.559 30.9568 310.641 30.9568C311.722 30.9568 312.594 30.0853 312.594 29.0034V5.50264Z" fill="white"/>
<path d="M371.496 49.1383V25.6375C371.496 22.2717 374.231 19.5369 377.597 19.5369C380.962 19.5369 383.697 22.2717 383.697 25.6375V49.1383C383.697 52.5041 380.962 55.2389 377.597 55.2389C374.231 55.2389 371.496 52.5041 371.496 49.1383ZM379.55 25.6375C379.55 24.5556 378.679 23.6841 377.597 23.6841C376.515 23.6841 375.643 24.5556 375.643 25.6375V49.1383C375.643 50.2202 376.515 51.0917 377.597 51.0917C378.679 51.0917 379.55 50.2202 379.55 49.1383V25.6375Z" fill="white"/>
<path d="M333.931 1.686C342.856 8.56794 355.268 9.22908 364.824 3.36892C374.441 -2.5213 379.46 -14.3618 376.996 -25.391C375.643 -31.4615 372.187 -36.9611 367.229 -40.8678L366.177 -41.7093L363.021 -37.6523L364.073 -36.8108C367.259 -34.3165 369.663 -31.0708 371.075 -27.4045C374.321 -18.8997 371.766 -8.86232 364.885 -3.00216C357.041 3.69947 345.351 3.96997 337.116 -2.37103L336.065 -3.18246L332.909 0.874573L333.931 1.686Z" fill="white"/>
<path d="M540.842 122.698C543.217 125.072 543.217 128.949 540.842 131.323L524.224 147.942C521.85 150.316 517.973 150.316 515.599 147.942C513.225 145.568 513.225 141.691 515.599 139.317L532.217 122.698C534.592 120.324 538.468 120.324 540.842 122.698ZM518.544 144.997C519.295 145.748 520.527 145.748 521.279 144.997L537.897 128.378C538.649 127.627 538.649 126.395 537.897 125.643C537.146 124.892 535.914 124.892 535.163 125.643L518.544 142.262C517.792 143.013 517.792 144.246 518.544 144.997Z" fill="#F6F6F6" fill-opacity="0.7"/>
<path d="M504.239 197.017C505.381 198.159 506.012 199.692 506.012 201.345V224.845C506.012 226.468 505.381 228.001 504.239 229.173C503.097 230.345 501.564 230.946 499.911 230.946C498.289 230.946 496.756 230.315 495.584 229.173C494.442 228.031 493.811 226.498 493.811 224.845V201.345C493.811 199.722 494.442 198.189 495.584 197.017C496.726 195.845 498.259 195.244 499.911 195.244C501.564 195.244 503.097 195.875 504.239 197.017ZM498.559 226.198C498.92 226.558 499.401 226.769 499.942 226.769C500.452 226.769 500.963 226.558 501.324 226.198C501.685 225.837 501.895 225.356 501.895 224.815V201.315C501.895 200.804 501.685 200.293 501.324 199.932C500.963 199.572 500.482 199.361 499.942 199.361C499.431 199.361 498.95 199.572 498.559 199.932C498.168 200.293 497.988 200.774 497.988 201.315V224.815C497.988 225.356 498.198 225.837 498.559 226.198Z" fill="white"/>
<path d="M461.926 97.5446L478.544 114.163C480.919 116.538 480.919 120.414 478.544 122.788C476.17 125.163 472.294 125.163 469.919 122.788L453.301 106.17C450.926 103.795 450.926 99.9187 453.301 97.5446C455.675 95.1705 459.551 95.1705 461.926 97.5446ZM472.865 119.843C473.616 120.595 474.848 120.595 475.599 119.843C476.351 119.092 476.351 117.86 475.599 117.109L458.98 100.49C458.229 99.7384 456.997 99.7384 456.246 100.49C455.494 101.241 455.494 102.473 456.246 103.224L472.865 119.843Z" fill="white"/>
<path d="M400.349 130.662L416.968 147.281C419.342 149.655 419.342 153.532 416.968 155.906C414.593 158.28 410.717 158.28 408.343 155.906L391.724 139.287C389.35 136.913 389.35 133.036 391.724 130.662C394.098 128.258 397.945 128.258 400.349 130.662ZM411.258 152.961C412.009 153.712 413.241 153.712 413.992 152.961C414.744 152.209 414.744 150.977 413.992 150.226L397.374 133.607C396.622 132.856 395.39 132.856 394.639 133.607C393.888 134.358 393.888 135.591 394.639 136.342L411.258 152.961Z" fill="white"/>
<path d="M448.492 215.048C449.634 216.19 450.265 217.723 450.265 219.376C450.265 220.999 449.634 222.531 448.492 223.704C447.35 224.845 445.818 225.477 444.165 225.477H420.664C417.298 225.477 414.563 222.742 414.563 219.376C414.563 216.01 417.298 213.275 420.664 213.275H444.165C445.818 213.245 447.35 213.907 448.492 215.048ZM419.312 220.728C419.672 221.089 420.153 221.299 420.694 221.299H444.195C445.277 221.299 446.148 220.428 446.148 219.346C446.148 218.835 445.938 218.354 445.577 217.964C445.217 217.603 444.736 217.393 444.195 217.393H420.694C419.612 217.393 418.741 218.264 418.741 219.346C418.771 219.887 418.981 220.368 419.312 220.728Z" fill="white"/>
<path d="M460.453 137.634C449.274 139.077 440.018 147.371 437.403 158.28C434.758 169.249 439.597 181.18 449.123 187.22C454.382 190.556 460.723 191.999 466.974 191.247L468.327 191.097L467.696 185.988L466.373 186.138C462.376 186.619 458.349 186.048 454.773 184.425C446.479 180.699 441.19 171.803 441.881 162.788C442.692 152.48 450.776 144.035 461.084 142.713L462.406 142.533L461.775 137.424L460.453 137.634Z" fill="white"/>
<path d="M454.352 165.583L472.865 178.565L475.419 175.019L463.278 166.695L491.677 163.239L491.437 161.075L491.166 158.911L462.737 162.367L472.534 151.338L469.198 148.543L454.352 165.583Z" fill="white"/>
<path d="M420.694 57.6955C424.06 57.6955 426.795 60.4302 426.795 63.7961V87.2968C426.795 90.6627 424.06 93.3974 420.694 93.3974C417.328 93.3974 414.593 90.6627 414.593 87.2968V63.7961C414.593 60.4302 417.328 57.6955 420.694 57.6955ZM420.694 89.2202C421.776 89.2202 422.647 88.3487 422.647 87.2668V63.766C422.647 62.6842 421.776 61.8126 420.694 61.8126C419.612 61.8126 418.741 62.6842 418.741 63.766V87.2668C418.771 88.3487 419.642 89.2202 420.694 89.2202Z" fill="#F6F6F6" fill-opacity="0.7"/>
<path d="M582.134 59.4686C583.276 60.6106 583.907 62.1432 583.907 63.7961V87.2968C583.907 88.9197 583.276 90.4523 582.134 91.6244C580.992 92.7964 579.459 93.3974 577.806 93.3974C576.184 93.3974 574.651 92.7663 573.479 91.6244C572.337 90.4824 571.706 88.9497 571.706 87.2968V63.7961C571.706 62.1733 572.337 60.6406 573.479 59.4686C574.621 58.3266 576.154 57.6955 577.806 57.6955C579.459 57.6955 580.992 58.3266 582.134 59.4686ZM576.454 88.6492C576.815 89.0098 577.296 89.2202 577.837 89.2202C578.347 89.2202 578.858 89.0098 579.219 88.6492C579.58 88.2886 579.79 87.8077 579.79 87.2668V63.766C579.79 63.2551 579.58 62.7443 579.219 62.3836C578.858 62.023 578.377 61.8126 577.837 61.8126C577.326 61.8126 576.845 62.023 576.454 62.3836C576.094 62.7443 575.883 63.2251 575.883 63.766V87.2668C575.883 87.8077 576.094 88.2886 576.454 88.6492Z" fill="white"/>
<path d="M478.214 -6.88649L494.833 9.73233C497.207 12.1065 497.207 15.9832 494.833 18.3573C492.458 20.7314 488.582 20.7314 486.208 18.3573L469.589 1.73847C467.215 -0.635651 467.215 -4.51238 469.589 -6.88649C471.963 -9.26061 475.84 -9.26061 478.214 -6.88649ZM489.153 15.4122C489.904 16.1635 491.136 16.1635 491.887 15.4122C492.639 14.6609 492.639 13.4287 491.887 12.6774L475.269 -3.94139C474.517 -4.69269 473.285 -4.69269 472.534 -3.94139C471.783 -3.19008 471.783 -1.95795 472.534 -1.20664L489.153 15.4122Z" fill="white"/>
<path d="M526.387 77.4999C527.529 78.6418 528.16 80.1745 528.16 81.8274C528.16 83.4502 527.529 84.9829 526.387 86.1549C525.245 87.2969 523.713 87.928 522.06 87.928H498.559C495.193 87.928 492.459 85.1932 492.459 81.8274C492.459 78.4615 495.193 75.7268 498.559 75.7268H522.06C523.713 75.7268 525.245 76.3579 526.387 77.4999ZM497.207 83.1797C497.567 83.5403 498.048 83.7507 498.589 83.7507H522.09C523.172 83.7507 524.043 82.8792 524.043 81.7973C524.043 81.2864 523.833 80.8056 523.472 80.4149C523.112 80.0242 522.631 79.8439 522.09 79.8439H498.589C497.507 79.8439 496.636 80.7154 496.636 81.7973C496.636 82.3383 496.876 82.8491 497.207 83.1797Z" fill="white"/>
<path d="M538.348 0.0855471C527.169 1.52805 517.913 9.82244 515.298 20.7314C512.654 31.7004 517.492 43.6311 527.018 49.6716C532.278 53.0074 538.619 54.4499 544.869 53.6986L546.222 53.5483L545.591 48.4394L544.268 48.5897C540.271 49.0705 536.244 48.4995 532.668 46.8767C524.374 43.1503 519.085 34.2548 519.776 25.2392C520.587 14.9313 528.671 6.48665 538.979 5.16436L540.302 4.98405L539.67 -0.124817L538.348 0.0855471Z" fill="white"/>
<path d="M532.247 28.034L550.76 41.0165L553.314 37.5004L541.173 29.1459L569.572 25.6899L569.302 23.5262L569.061 21.3624L540.632 24.8184L550.429 13.7893L547.093 10.9944L532.247 28.034Z" fill="white"/>
<path d="M54.4571 98.6102C57.8229 98.6102 60.5577 101.345 60.5577 104.711V128.212C60.5577 131.577 57.8229 134.312 54.4571 134.312C51.0913 134.312 48.3565 131.577 48.3565 128.212V104.711C48.3565 101.345 51.0913 98.6102 54.4571 98.6102ZM54.4571 130.135C55.539 130.135 56.4105 129.263 56.4105 128.181V104.681C56.4105 103.599 55.539 102.727 54.4571 102.727C53.3752 102.727 52.5037 103.599 52.5037 104.681V128.181C52.5338 129.263 53.4053 130.135 54.4571 130.135Z" fill="#F6F6F6" fill-opacity="0.7"/>
<path d="M215.897 100.383C217.039 101.525 217.67 103.058 217.67 104.711V128.212C217.67 129.834 217.039 131.367 215.897 132.539C214.755 133.711 213.222 134.312 211.57 134.312C209.947 134.312 208.414 133.681 207.242 132.539C206.1 131.397 205.469 129.864 205.469 128.212V104.711C205.469 103.088 206.1 101.555 207.242 100.383C208.384 99.2413 209.917 98.6102 211.57 98.6102C213.222 98.6102 214.755 99.2413 215.897 100.383ZM210.217 129.564C210.578 129.924 211.059 130.135 211.6 130.135C212.111 130.135 212.621 129.924 212.982 129.564C213.343 129.203 213.553 128.722 213.553 128.181V104.681C213.553 104.17 213.343 103.659 212.982 103.298C212.621 102.938 212.141 102.727 211.6 102.727C211.089 102.727 210.608 102.938 210.217 103.298C209.857 103.659 209.646 104.14 209.646 104.681V128.181C209.646 128.722 209.857 129.203 210.217 129.564Z" fill="white"/>
<path d="M173.584 0.910655L190.203 17.5295C192.577 19.9036 192.577 23.7803 190.203 26.1544C187.828 28.5286 183.952 28.5286 181.578 26.1544L164.959 9.53562C162.585 7.1615 162.585 3.28477 164.959 0.910655C167.333 -1.46346 171.21 -1.46346 173.584 0.910655ZM184.523 23.2093C185.274 23.9606 186.506 23.9606 187.257 23.2093C188.009 22.458 188.009 21.2259 187.257 20.4746L170.639 3.85576C169.887 3.10446 168.655 3.10446 167.904 3.85576C167.153 4.60707 167.153 5.8392 167.904 6.59051L184.523 23.2093Z" fill="white"/>
<path d="M111.977 34.0282L128.596 50.647C130.97 53.0211 130.97 56.8978 128.596 59.272C126.222 61.6461 122.345 61.6461 119.971 59.272L103.352 42.6531C100.978 40.279 100.978 36.4023 103.352 34.0282C105.726 31.654 109.603 31.654 111.977 34.0282ZM122.916 56.3268C123.667 57.0781 124.899 57.0781 125.651 56.3268C126.402 55.5755 126.402 54.3434 125.651 53.5921L109.032 36.9733C108.28 36.222 107.048 36.222 106.297 36.9733C105.546 37.7246 105.546 38.9567 106.297 39.708L122.916 56.3268Z" fill="white"/>
<path d="M160.15 118.415C161.292 119.557 161.924 121.089 161.924 122.742C161.924 124.365 161.292 125.898 160.15 127.07C159.008 128.212 157.476 128.843 155.823 128.843H132.322C128.956 128.843 126.222 126.108 126.222 122.742C126.222 119.376 128.956 116.641 132.322 116.641H155.823C157.476 116.641 159.008 117.273 160.15 118.415ZM130.97 124.094C131.33 124.455 131.811 124.665 132.352 124.665H155.853C156.935 124.665 157.806 123.794 157.806 122.712C157.806 122.201 157.596 121.72 157.235 121.33C156.875 120.939 156.394 120.759 155.853 120.759H132.352C131.27 120.759 130.399 121.63 130.399 122.712C130.399 123.253 130.639 123.764 130.97 124.094Z" fill="white"/>
<path d="M172.111 41.0002C160.932 42.4427 151.676 50.7371 149.061 61.646C146.417 72.615 151.255 84.5457 160.782 90.5862C166.041 93.922 172.382 95.3645 178.632 94.6132L179.985 94.463L179.354 89.3541L178.031 89.5044C174.035 89.9852 170.008 89.4142 166.431 87.7914C158.137 84.0649 152.848 75.1695 153.539 66.1538C154.35 55.846 162.434 47.4013 172.742 46.079L174.065 45.8987L173.433 40.7898L172.111 41.0002Z" fill="white"/>
<path d="M166.011 68.9486L184.523 81.9312L187.077 78.4151L174.936 70.0606L203.335 66.6046L203.065 64.4408L202.824 62.2771L174.395 65.7331L184.192 54.7039L180.856 51.9091L166.011 68.9486Z" fill="white"/>
<path d="M728.576 418.378C730.95 420.752 730.95 424.629 728.576 427.003L711.957 443.622C709.583 445.996 705.706 445.996 703.332 443.622C700.958 441.247 700.958 437.371 703.332 434.997L719.951 418.378C722.325 416.004 726.201 416.004 728.576 418.378ZM706.277 440.677C707.028 441.428 708.26 441.428 709.012 440.677L725.63 424.058C726.382 423.306 726.382 422.074 725.63 421.323C724.879 420.572 723.647 420.572 722.896 421.323L706.277 437.942C705.526 438.693 705.526 439.925 706.277 440.677Z" fill="#F6F6F6" fill-opacity="0.7"/>
<path d="M691.972 492.697C693.114 493.839 693.745 495.371 693.745 497.024V520.525C693.745 522.148 693.114 523.68 691.972 524.852C690.83 526.024 689.298 526.626 687.645 526.626C686.022 526.626 684.489 525.994 683.317 524.852C682.175 523.71 681.544 522.178 681.544 520.525V497.024C681.544 495.401 682.175 493.869 683.317 492.697C684.459 491.525 685.992 490.924 687.645 490.924C689.298 490.924 690.83 491.555 691.972 492.697ZM686.292 521.877C686.653 522.238 687.134 522.448 687.675 522.448C688.186 522.448 688.697 522.238 689.057 521.877C689.418 521.517 689.628 521.036 689.628 520.495V496.994C689.628 496.483 689.418 495.972 689.057 495.612C688.697 495.251 688.216 495.041 687.675 495.041C687.164 495.041 686.683 495.251 686.292 495.612C685.902 495.972 685.721 496.453 685.721 496.994V520.495C685.721 521.036 685.932 521.517 686.292 521.877Z" fill="white"/>
<path d="M649.659 393.224L666.278 409.843C668.652 412.217 668.652 416.094 666.278 418.468C663.903 420.842 660.027 420.842 657.653 418.468L641.034 401.849C638.66 399.475 638.66 395.598 641.034 393.224C643.408 390.85 647.285 390.85 649.659 393.224ZM660.598 415.523C661.349 416.274 662.581 416.274 663.332 415.523C664.084 414.772 664.084 413.539 663.332 412.788L646.714 396.169C645.962 395.418 644.73 395.418 643.979 396.169C643.228 396.921 643.228 398.153 643.979 398.904L660.598 415.523Z" fill="white"/>
<path d="M588.082 426.342L604.701 442.96C607.075 445.335 607.075 449.211 604.701 451.585C602.327 453.96 598.45 453.96 596.076 451.585L579.457 434.967C577.083 432.592 577.083 428.716 579.457 426.342C581.831 423.937 585.678 423.937 588.082 426.342ZM598.991 448.64C599.742 449.392 600.974 449.392 601.726 448.64C602.477 447.889 602.477 446.657 601.726 445.906L585.107 429.287C584.355 428.535 583.123 428.535 582.372 429.287C581.621 430.038 581.621 431.27 582.372 432.021L598.991 448.64Z" fill="white"/>
<path d="M636.226 510.728C637.367 511.87 637.999 513.403 637.999 515.055C637.999 516.678 637.367 518.211 636.226 519.383C635.084 520.525 633.551 521.156 631.898 521.156H608.397C605.031 521.156 602.297 518.421 602.297 515.055C602.297 511.69 605.031 508.955 608.397 508.955H631.898C633.551 508.925 635.084 509.586 636.226 510.728ZM607.045 516.408C607.406 516.768 607.886 516.979 608.427 516.979H631.928C633.01 516.979 633.881 516.107 633.881 515.025C633.881 514.515 633.671 514.034 633.31 513.643C632.95 513.282 632.469 513.072 631.928 513.072H608.427C607.345 513.072 606.474 513.944 606.474 515.025C606.504 515.566 606.714 516.047 607.045 516.408Z" fill="white"/>
<path d="M648.186 433.314C637.007 434.756 627.751 443.051 625.136 453.959C622.492 464.929 627.33 476.859 636.856 482.9C642.116 486.235 648.457 487.678 654.707 486.927L656.06 486.776L655.429 481.668L654.106 481.818C650.109 482.299 646.082 481.728 642.506 480.105C634.212 476.378 628.923 467.483 629.614 458.467C630.425 448.159 638.509 439.715 648.817 438.392L650.14 438.212L649.508 433.103L648.186 433.314Z" fill="white"/>
<path d="M642.086 461.262L660.598 474.245L663.152 470.699L651.011 462.374L679.41 458.918L679.17 456.754L678.9 454.591L650.47 458.047L660.267 447.017L656.931 444.223L642.086 461.262Z" fill="white"/>
<path d="M694.649 34.8858C698.015 34.8858 700.75 37.6205 700.75 40.9864V64.4871C700.75 67.853 698.015 70.5877 694.649 70.5877C691.284 70.5877 688.549 67.853 688.549 64.4871V40.9864C688.549 37.6205 691.284 34.8858 694.649 34.8858ZM694.649 66.4105C695.731 66.4105 696.603 65.539 696.603 64.4571V40.9563C696.603 39.8744 695.731 39.0029 694.649 39.0029C693.568 39.0029 692.696 39.8744 692.696 40.9563V64.4571C692.726 65.539 693.598 66.4105 694.649 66.4105Z" fill="#F6F6F6" fill-opacity="0.7"/>
<path d="M721.336 113.292C722.959 113.292 724.491 113.923 725.663 115.065L742.282 131.684C743.424 132.826 744.055 134.358 744.055 136.011C744.055 137.634 743.424 139.167 742.282 140.339C741.14 141.481 739.608 142.112 737.955 142.112C736.332 142.112 734.799 141.481 733.627 140.339L717.008 123.72C715.866 122.578 715.235 121.045 715.235 119.392C715.235 117.74 715.866 116.237 717.008 115.065C718.18 113.953 719.713 113.292 721.336 113.292ZM737.955 137.965C738.466 137.965 738.977 137.754 739.337 137.394C739.698 137.033 739.908 136.552 739.908 136.011C739.908 135.5 739.698 134.989 739.337 134.629L722.718 118.01C722.358 117.649 721.877 117.439 721.336 117.439C720.795 117.439 720.314 117.649 719.954 118.01C719.593 118.371 719.383 118.851 719.383 119.392C719.383 119.933 719.593 120.414 719.954 120.775L736.572 137.394C736.933 137.754 737.414 137.965 737.955 137.965Z" fill="white"/>
<path d="M621.082 72.9017H644.583C647.949 72.9017 650.683 75.6364 650.683 79.0023C650.683 82.3681 647.949 85.1029 644.583 85.1029H621.082C617.716 85.1029 614.981 82.3681 614.981 79.0023C614.981 75.6364 617.716 72.9017 621.082 72.9017ZM644.553 80.9256C645.634 80.9256 646.506 80.0541 646.506 78.9722C646.506 77.8904 645.634 77.0188 644.553 77.0188H621.052C619.97 77.0188 619.098 77.8904 619.098 78.9722C619.098 80.0541 619.97 80.9256 621.052 80.9256H644.553Z" fill="white"/>
<path d="M600.917 139.858H624.418C627.783 139.858 630.518 142.593 630.518 145.958C630.518 149.324 627.783 152.059 624.418 152.059H600.917C597.551 152.059 594.816 149.324 594.816 145.958C594.816 142.593 597.551 139.858 600.917 139.858ZM624.418 147.912C625.499 147.912 626.371 147.04 626.371 145.958C626.371 144.877 625.499 144.005 624.418 144.005H600.917C599.835 144.005 598.963 144.877 598.963 145.958C598.963 147.04 599.835 147.912 600.917 147.912H624.418Z" fill="white"/>
<path d="M694.65 165.462C696.272 165.462 697.805 166.093 698.977 167.235C700.119 168.377 700.75 169.91 700.75 171.563C700.75 173.186 700.119 174.718 698.977 175.89L682.358 192.509C679.984 194.883 676.107 194.883 673.733 192.509C671.359 190.135 671.359 186.258 673.733 183.884L690.352 167.265C691.494 166.093 693.027 165.462 694.65 165.462ZM678.061 190.135C678.572 190.135 679.052 189.955 679.443 189.564L696.062 172.945C696.813 172.194 696.813 170.962 696.062 170.211C695.701 169.85 695.221 169.64 694.68 169.64C694.139 169.64 693.658 169.85 693.297 170.211L676.678 186.829C675.927 187.581 675.927 188.813 676.678 189.564C677.069 189.925 677.55 190.135 678.061 190.135Z" fill="white"/>
<path d="M618.798 3.12068C620.421 3.12068 621.953 3.75178 623.126 4.89376C624.267 6.03574 624.899 7.5684 624.899 9.22127C624.899 10.8441 624.267 12.3767 623.126 13.5488L606.507 30.1676C604.133 32.5417 600.256 32.5417 597.882 30.1676C595.508 27.7935 595.508 23.9168 597.882 21.5426L614.501 4.92381C615.643 3.75178 617.175 3.12068 618.798 3.12068ZM602.209 27.7935C602.72 27.7935 603.201 27.6132 603.592 27.2225L620.21 10.6037C620.962 9.85236 620.962 8.62022 620.21 7.86892C619.85 7.50829 619.369 7.29793 618.828 7.29793C618.317 7.29793 617.806 7.50829 617.446 7.86892L600.827 24.4877C600.076 25.2391 600.076 26.4712 600.827 27.2225C601.187 27.5831 601.698 27.7935 602.209 27.7935Z" fill="white"/>
<path d="M648.369 102.263C641.487 111.188 640.826 123.6 646.686 133.156C652.577 142.773 664.417 147.792 675.446 145.327C681.517 143.975 687.016 140.519 690.923 135.56L691.764 134.509L687.707 131.353L686.866 132.405C684.372 135.59 681.126 137.995 677.46 139.407C668.955 142.653 658.918 140.098 653.057 133.216C646.356 125.373 646.085 113.682 652.426 105.448L653.238 104.396L649.181 101.241L648.369 102.263Z" fill="white"/>
<path d="M663.816 126.334L686.085 122.458L685.393 118.13L670.908 120.835L688.549 98.2957L686.836 96.9434L685.123 95.591L667.482 118.16L666.611 103.435L662.253 103.795L663.816 126.334Z" fill="white"/>
<path d="M190.57 369.859C193.936 369.859 196.671 372.594 196.671 375.96V399.461C196.671 402.827 193.936 405.561 190.57 405.561C187.204 405.561 184.47 402.827 184.47 399.461V375.96C184.47 372.594 187.204 369.859 190.57 369.859ZM190.57 401.384C191.652 401.384 192.524 400.513 192.524 399.431V375.93C192.524 374.848 191.652 373.977 190.57 373.977C189.488 373.977 188.617 374.848 188.617 375.93V399.431C188.647 400.513 189.518 401.384 190.57 401.384Z" fill="#F6F6F6" fill-opacity="0.7"/>
<path d="M315.296 343.878C316.438 345.02 317.069 346.553 317.069 348.205V371.706C317.069 373.329 316.438 374.862 315.296 376.034C314.154 377.206 312.621 377.807 310.968 377.807C309.345 377.807 307.813 377.176 306.641 376.034C305.499 374.892 304.868 373.359 304.868 371.706V348.205C304.868 346.583 305.499 345.05 306.641 343.878C307.783 342.736 309.315 342.105 310.968 342.105C312.621 342.105 314.154 342.736 315.296 343.878ZM309.616 373.059C309.976 373.419 310.457 373.63 310.998 373.63C311.509 373.63 312.02 373.419 312.381 373.059C312.741 372.698 312.952 372.217 312.952 371.676V348.175C312.952 347.665 312.741 347.154 312.381 346.793C312.02 346.432 311.539 346.222 310.998 346.222C310.487 346.222 310.006 346.432 309.616 346.793C309.255 347.154 309.045 347.635 309.045 348.175V371.676C309.045 372.217 309.255 372.698 309.616 373.059Z" fill="white"/>
<path d="M272.982 244.405L289.601 261.024C291.975 263.398 291.975 267.275 289.601 269.649C287.227 272.023 283.35 272.023 280.976 269.649L264.357 253.03C261.983 250.656 261.983 246.779 264.357 244.405C266.731 242.031 270.608 242.031 272.982 244.405ZM283.921 266.704C284.672 267.455 285.905 267.455 286.656 266.704C287.407 265.953 287.407 264.721 286.656 263.969L270.037 247.35C269.286 246.599 268.054 246.599 267.302 247.35C266.551 248.102 266.551 249.334 267.302 250.085L283.921 266.704Z" fill="white"/>
<path d="M211.375 277.523L227.994 294.142C230.368 296.516 230.368 300.393 227.994 302.767C225.62 305.141 221.743 305.141 219.369 302.767L202.75 286.148C200.376 283.774 200.376 279.897 202.75 277.523C205.124 275.149 209.001 275.149 211.375 277.523ZM222.314 299.822C223.066 300.573 224.298 300.573 225.049 299.822C225.8 299.07 225.8 297.838 225.049 297.087L208.43 280.468C207.679 279.717 206.447 279.717 205.695 280.468C204.944 281.219 204.944 282.451 205.695 283.203L222.314 299.822Z" fill="white"/>
<path d="M259.549 361.909C260.691 363.051 261.322 364.584 261.322 366.237C261.322 367.859 260.691 369.392 259.549 370.564C258.407 371.706 256.874 372.337 255.221 372.337H231.721C228.355 372.337 225.62 369.603 225.62 366.237C225.62 362.871 228.355 360.136 231.721 360.136H255.221C256.874 360.136 258.407 360.767 259.549 361.909ZM230.368 367.589C230.729 367.95 231.21 368.16 231.751 368.16H255.251C256.333 368.16 257.205 367.289 257.205 366.207C257.205 365.696 256.994 365.215 256.634 364.824C256.273 364.434 255.792 364.253 255.251 364.253H231.751C230.669 364.253 229.797 365.125 229.797 366.207C229.797 366.748 230.038 367.258 230.368 367.589Z" fill="white"/>
<path d="M271.51 284.495C260.33 285.937 251.074 294.232 248.46 305.141C245.815 316.11 250.653 328.04 260.18 334.081C265.439 337.417 271.78 338.859 278.031 338.108L279.383 337.958L278.752 332.849L277.43 332.999C273.433 333.48 269.406 332.909 265.83 331.286C257.535 327.56 252.246 318.664 252.937 309.649C253.749 299.341 261.833 290.896 272.141 289.574L273.463 289.393L272.832 284.285L271.51 284.495Z" fill="white"/>
<path d="M265.409 312.443L283.921 325.426L286.476 321.91L274.335 313.555L302.734 310.099L302.463 307.936L302.223 305.772L273.794 309.228L283.591 298.199L280.255 295.404L265.409 312.443Z" fill="white"/>
<path d="M445.186 260.998C448.552 260.998 451.287 263.733 451.287 267.099V290.6C451.287 293.965 448.552 296.7 445.186 296.7C441.821 296.7 439.086 293.965 439.086 290.6V267.099C439.086 263.733 441.821 260.998 445.186 260.998ZM445.186 292.553C446.268 292.553 447.14 291.681 447.14 290.6V267.099C447.14 266.017 446.268 265.145 445.186 265.145C444.104 265.145 443.233 266.017 443.233 267.099V290.6C443.233 291.681 444.104 292.553 445.186 292.553Z" fill="#F6F6F6" fill-opacity="0.7"/>
<path d="M471.873 339.434C473.495 339.434 475.028 340.065 476.2 341.207L492.819 357.826C493.961 358.968 494.592 360.501 494.592 362.154C494.592 363.807 493.961 365.309 492.819 366.481C491.677 367.623 490.144 368.254 488.491 368.254C486.869 368.254 485.336 367.623 484.164 366.481L467.545 349.862C466.403 348.72 465.772 347.188 465.772 345.535C465.772 343.912 466.403 342.379 467.545 341.207C468.687 340.065 470.22 339.434 471.873 339.434ZM488.461 364.077C488.972 364.077 489.483 363.867 489.844 363.506C490.204 363.145 490.415 362.665 490.415 362.124C490.415 361.583 490.204 361.102 489.844 360.741L473.225 344.122C472.864 343.762 472.384 343.551 471.843 343.551C471.332 343.551 470.821 343.762 470.46 344.122C470.1 344.483 469.889 344.964 469.889 345.505C469.889 346.046 470.1 346.527 470.46 346.887L487.079 363.506C487.47 363.867 487.951 364.077 488.461 364.077Z" fill="white"/>
<path d="M371.589 299.014H395.09C398.455 299.014 401.19 301.749 401.19 305.115C401.19 308.481 398.455 311.215 395.09 311.215H371.589C368.223 311.215 365.488 308.481 365.488 305.115C365.488 301.749 368.253 299.014 371.589 299.014ZM395.09 307.068C396.171 307.068 397.043 306.197 397.043 305.115C397.043 304.033 396.171 303.161 395.09 303.161H371.589C370.507 303.161 369.635 304.033 369.635 305.115C369.635 306.197 370.507 307.068 371.589 307.068H395.09Z" fill="white"/>
<path d="M351.454 365.97H374.955C378.32 365.97 381.055 368.705 381.055 372.071C381.055 375.437 378.32 378.171 374.955 378.171H351.454C348.088 378.171 345.353 375.437 345.353 372.071C345.353 368.705 348.088 365.97 351.454 365.97ZM374.955 374.024C376.036 374.024 376.908 373.153 376.908 372.071C376.908 370.989 376.036 370.117 374.955 370.117H351.454C350.372 370.117 349.5 370.989 349.5 372.071C349.5 373.153 350.372 374.024 351.454 374.024H374.955Z" fill="white"/>
<path d="M445.186 391.605C446.809 391.605 448.342 392.236 449.514 393.378C450.656 394.52 451.287 396.052 451.287 397.705C451.287 399.328 450.656 400.861 449.514 402.033L432.895 418.652C430.521 421.026 426.644 421.026 424.27 418.652C421.896 416.278 421.896 412.401 424.27 410.027L440.889 393.408C442.031 392.236 443.564 391.605 445.186 391.605ZM428.568 416.248C429.078 416.248 429.559 416.067 429.95 415.677L446.569 399.058C447.32 398.306 447.32 397.074 446.569 396.323C446.208 395.962 445.727 395.752 445.186 395.752C444.676 395.752 444.165 395.962 443.804 396.323L427.185 412.942C426.434 413.693 426.434 414.925 427.185 415.677C427.576 416.067 428.087 416.248 428.568 416.248Z" fill="white"/>
<path d="M369.335 229.263C370.958 229.263 372.49 229.894 373.662 231.036C374.804 232.178 375.435 233.711 375.435 235.364C375.435 236.987 374.804 238.519 373.662 239.691L357.043 256.31C354.669 258.684 350.793 258.684 348.419 256.31C346.044 253.936 346.044 250.059 348.419 247.685L365.037 231.066C366.179 229.894 367.712 229.263 369.335 229.263ZM352.716 253.906C353.227 253.906 353.708 253.726 354.098 253.335L370.717 236.716C371.469 235.965 371.469 234.733 370.717 233.981C370.357 233.621 369.876 233.41 369.335 233.41C368.824 233.41 368.313 233.621 367.952 233.981L351.364 250.6C350.612 251.351 350.612 252.584 351.364 253.335C351.724 253.726 352.235 253.906 352.716 253.906Z" fill="white"/>
<path d="M398.906 328.405C392.024 337.331 391.363 349.742 397.223 359.299C403.113 368.915 414.954 373.934 425.983 371.47C432.054 370.117 437.553 366.661 441.46 361.703L442.301 360.651L438.244 357.496L437.403 358.547C434.909 361.733 431.663 364.137 427.997 365.55C419.492 368.795 409.454 366.241 403.594 359.359C396.893 351.515 396.622 339.825 402.963 331.591L403.775 330.539L399.718 327.383L398.906 328.405Z" fill="white"/>
<path d="M414.353 352.477L436.621 348.57L435.93 344.273L421.445 346.977L439.086 324.408L437.373 323.086L435.66 321.733L417.989 344.273L417.148 329.547L412.79 329.938L414.353 352.477Z" fill="white"/>
<path d="M370.024 513.6C370.024 516.965 367.289 519.7 363.923 519.7L340.422 519.7C337.056 519.7 334.322 516.965 334.322 513.6C334.322 510.234 337.056 507.499 340.422 507.499L363.923 507.499C367.289 507.499 370.024 510.234 370.024 513.6ZM338.469 513.6C338.469 514.682 339.34 515.553 340.422 515.553L363.923 515.553C365.005 515.553 365.876 514.682 365.876 513.6C365.876 512.518 365.005 511.646 363.923 511.646L340.422 511.646C339.34 511.646 338.469 512.518 338.469 513.6Z" fill="#F6F6F6" fill-opacity="0.7"/>
<path d="M291.587 540.286C291.587 541.909 290.956 543.442 289.814 544.614L273.196 561.232C272.054 562.374 270.521 563.005 268.868 563.005C267.215 563.005 265.713 562.374 264.54 561.232C263.399 560.09 262.767 558.558 262.767 556.905C262.767 555.282 263.399 553.749 264.54 552.577L281.159 535.959C282.301 534.817 283.834 534.185 285.487 534.185C287.11 534.185 288.642 534.817 289.814 535.959C290.956 537.101 291.587 538.633 291.587 540.286ZM266.945 556.875C266.945 557.386 267.155 557.897 267.516 558.257C267.876 558.618 268.357 558.828 268.898 558.828C269.439 558.828 269.92 558.618 270.28 558.257L286.899 541.638C287.26 541.278 287.47 540.797 287.47 540.256C287.47 539.745 287.26 539.234 286.899 538.874C286.539 538.513 286.058 538.303 285.517 538.303C284.976 538.303 284.495 538.513 284.134 538.874L267.516 555.492C267.155 555.883 266.945 556.364 266.945 556.875Z" fill="white"/>
<path d="M332.008 440.002L332.008 463.503C332.008 466.869 329.273 469.603 325.907 469.603C322.541 469.603 319.806 466.869 319.806 463.503L319.806 440.002C319.806 436.636 322.541 433.901 325.907 433.901C329.273 433.901 332.008 436.666 332.008 440.002ZM323.954 463.503C323.954 464.585 324.825 465.456 325.907 465.456C326.989 465.456 327.86 464.585 327.86 463.503L327.86 440.002C327.86 438.92 326.989 438.049 325.907 438.049C324.825 438.049 323.954 438.92 323.954 440.002L323.954 463.503Z" fill="white"/>
<path d="M265.051 419.867L265.051 443.368C265.051 446.734 262.317 449.468 258.951 449.468C255.585 449.468 252.85 446.734 252.85 443.368L252.85 419.867C252.85 416.501 255.585 413.766 258.951 413.766C262.317 413.766 265.051 416.501 265.051 419.867ZM256.997 443.368C256.997 444.45 257.869 445.321 258.951 445.321C260.033 445.321 260.904 444.45 260.904 443.368L260.904 419.867C260.904 418.785 260.033 417.914 258.951 417.914C257.869 417.914 256.997 418.785 256.997 419.867L256.997 443.368Z" fill="white"/>
<path d="M239.417 513.6C239.417 515.223 238.786 516.755 237.644 517.927C236.502 519.069 234.969 519.7 233.316 519.7C231.694 519.7 230.161 519.069 228.989 517.927L212.37 501.308C209.996 498.934 209.996 495.058 212.37 492.683C214.744 490.309 218.621 490.309 220.995 492.683L237.614 509.302C238.786 510.444 239.417 511.977 239.417 513.6ZM214.774 496.981C214.774 497.492 214.955 497.973 215.345 498.363L231.964 514.982C232.715 515.733 233.947 515.733 234.699 514.982C235.059 514.621 235.27 514.141 235.27 513.6C235.27 513.089 235.059 512.578 234.699 512.217L218.08 495.598C217.329 494.847 216.097 494.847 215.345 495.598C214.955 495.989 214.774 496.5 214.774 496.981Z" fill="white"/>
<path d="M401.759 437.748C401.759 439.371 401.127 440.904 399.986 442.076C398.844 443.218 397.311 443.849 395.658 443.849C394.035 443.849 392.503 443.218 391.33 442.076L374.712 425.457C372.338 423.083 372.338 419.206 374.712 416.832C377.086 414.458 380.963 414.458 383.337 416.832L399.955 433.451C401.127 434.593 401.759 436.125 401.759 437.748ZM377.116 421.129C377.116 421.64 377.296 422.121 377.687 422.512L394.306 439.131C395.057 439.882 396.289 439.882 397.04 439.131C397.401 438.77 397.611 438.289 397.611 437.748C397.611 437.237 397.401 436.726 397.04 436.366L380.422 419.777C379.67 419.026 378.438 419.026 377.687 419.777C377.296 420.138 377.116 420.649 377.116 421.129Z" fill="white"/>
<path d="M302.617 467.32C293.691 460.438 281.28 459.776 271.723 465.637C262.106 471.527 257.088 483.367 259.552 494.396C260.904 500.467 264.36 505.967 269.319 509.873L270.371 510.715L273.526 506.658L272.474 505.816C269.289 503.322 266.885 500.076 265.472 496.41C262.227 487.905 264.781 477.868 271.663 472.008C279.507 465.306 291.197 465.036 299.431 471.377L300.483 472.188L303.638 468.131L302.617 467.32Z" fill="white"/>
<path d="M278.545 482.766L282.452 505.035L286.749 504.344L284.044 489.859L306.614 507.499L307.936 505.786L309.288 504.073L286.749 486.403L301.475 485.561L301.084 481.204L278.545 482.766Z" fill="white"/>
<path d="M316.21 61.0828C319.576 61.0828 322.311 63.8175 322.311 67.1834V90.6841C322.311 94.05 319.576 96.7847 316.21 96.7847C312.844 96.7847 310.11 94.05 310.11 90.6841V67.1834C310.11 63.8175 312.844 61.0828 316.21 61.0828ZM316.21 92.6075C317.292 92.6075 318.164 91.736 318.164 90.6541V67.1533C318.164 66.0714 317.292 65.1999 316.21 65.1999C315.128 65.1999 314.257 66.0714 314.257 67.1533V90.6541C314.287 91.736 315.158 92.6075 316.21 92.6075Z" fill="#F6F6F6" fill-opacity="0.7"/>
<path d="M342.896 139.489C344.519 139.489 346.052 140.12 347.224 141.262L363.843 157.881C364.985 159.023 365.616 160.555 365.616 162.208C365.616 163.831 364.985 165.364 363.843 166.536C362.701 167.678 361.168 168.309 359.515 168.309C357.892 168.309 356.36 167.678 355.188 166.536L338.569 149.917C337.427 148.775 336.796 147.242 336.796 145.589C336.796 143.937 337.427 142.434 338.569 141.262C339.741 140.15 341.274 139.489 342.896 139.489ZM359.515 164.162C360.026 164.162 360.537 163.951 360.898 163.591C361.258 163.23 361.469 162.749 361.469 162.208C361.469 161.697 361.258 161.186 360.898 160.826L344.279 144.207C343.918 143.846 343.437 143.636 342.896 143.636C342.355 143.636 341.875 143.846 341.514 144.207C341.153 144.568 340.943 145.048 340.943 145.589C340.943 146.13 341.153 146.611 341.514 146.972L358.133 163.591C358.493 163.951 358.974 164.162 359.515 164.162Z" fill="white"/>
<path d="M242.643 99.0988H266.143C269.509 99.0988 272.244 101.834 272.244 105.199C272.244 108.565 269.509 111.3 266.143 111.3H242.643C239.277 111.3 236.542 108.565 236.542 105.199C236.542 101.834 239.277 99.0988 242.643 99.0988ZM266.113 107.123C267.195 107.123 268.067 106.251 268.067 105.169C268.067 104.087 267.195 103.216 266.113 103.216H242.613C241.531 103.216 240.659 104.087 240.659 105.169C240.659 106.251 241.531 107.123 242.613 107.123H266.113Z" fill="white"/>
<path d="M222.478 166.055H245.978C249.344 166.055 252.079 168.79 252.079 172.156C252.079 175.521 249.344 178.256 245.978 178.256H222.478C219.112 178.256 216.377 175.521 216.377 172.156C216.377 168.79 219.112 166.055 222.478 166.055ZM245.978 174.109C247.06 174.109 247.932 173.237 247.932 172.156C247.932 171.074 247.06 170.202 245.978 170.202H222.478C221.396 170.202 220.524 171.074 220.524 172.156C220.524 173.237 221.396 174.109 222.478 174.109H245.978Z" fill="white"/>
<path d="M316.21 191.659C317.833 191.659 319.366 192.29 320.538 193.432C321.68 194.574 322.311 196.107 322.311 197.76C322.311 199.383 321.68 200.915 320.538 202.087L303.919 218.706C301.545 221.08 297.668 221.08 295.294 218.706C292.92 216.332 292.92 212.455 295.294 210.081L311.913 193.462C313.055 192.29 314.587 191.659 316.21 191.659ZM299.621 216.332C300.132 216.332 300.613 216.152 301.004 215.761L317.623 199.142C318.374 198.391 318.374 197.159 317.623 196.408C317.262 196.047 316.781 195.837 316.24 195.837C315.699 195.837 315.218 196.047 314.858 196.408L298.239 213.026C297.488 213.778 297.488 215.01 298.239 215.761C298.63 216.122 299.11 216.332 299.621 216.332Z" fill="white"/>
<path d="M240.358 29.3177C241.981 29.3177 243.514 29.9488 244.686 31.0908C245.828 32.2327 246.459 33.7654 246.459 35.4183C246.459 37.0411 245.828 38.5737 244.686 39.7458L228.067 56.3646C225.693 58.7387 221.816 58.7387 219.442 56.3646C217.068 53.9905 217.068 50.1138 219.442 47.7396L236.061 31.1208C237.203 29.9488 238.736 29.3177 240.358 29.3177ZM223.77 53.9905C224.281 53.9905 224.761 53.8102 225.152 53.4195L241.771 36.8007C242.522 36.0494 242.522 34.8172 241.771 34.0659C241.41 33.7053 240.929 33.4949 240.389 33.4949C239.878 33.4949 239.367 33.7053 239.006 34.0659L222.387 50.6848C221.636 51.4361 221.636 52.6682 222.387 53.4195C222.748 53.7801 223.259 53.9905 223.77 53.9905Z" fill="white"/>
<path d="M269.93 128.46C263.048 137.385 262.387 149.797 268.247 159.353C274.137 168.97 285.978 173.989 297.007 171.524C303.077 170.172 308.577 166.716 312.484 161.757L313.325 160.706L309.268 157.55L308.427 158.602C305.932 161.787 302.687 164.192 299.02 165.604C290.516 168.85 280.478 166.295 274.618 159.413C267.916 151.57 267.646 139.879 273.987 131.645L274.798 130.593L270.741 127.438L269.93 128.46Z" fill="white"/>
<path d="M285.377 152.531L307.645 148.655L306.954 144.327L292.469 147.032L310.11 124.493L308.397 123.14L306.684 121.788L289.043 144.357L288.172 129.632L283.814 129.992L285.377 152.531Z" fill="white"/>
</svg>
